<svg width="16" height="17" viewBox="0 0 16 17" fill="none" xmlns="http://www.w3.org/2000/svg">
<g id="_magnifying-glass" opacity="0.5">
<path id="Vector" d="M6.93311 3.13281C9.30786 3.13281 11.2328 5.05788 11.2329 7.43262C11.2329 8.44824 10.8819 9.38058 10.2935 10.1162L10.0132 10.4658L13.3569 13.8096C13.3633 13.8161 13.3667 13.8245 13.3667 13.833L13.3569 13.8564C13.3505 13.8629 13.342 13.8662 13.3335 13.8662L13.3101 13.8564L9.96631 10.5127L9.6167 10.793C8.88107 11.3814 7.94873 11.7324 6.93311 11.7324C4.55837 11.7323 2.6333 9.80738 2.6333 7.43262C2.63341 5.05795 4.55844 3.13292 6.93311 3.13281ZM6.93311 3.19922C4.59525 3.19932 2.69981 5.09476 2.69971 7.43262C2.69971 9.77056 4.59519 11.6659 6.93311 11.666C9.27111 11.666 11.1665 9.77063 11.1665 7.43262C11.1664 5.0947 9.27105 3.19922 6.93311 3.19922Z" fill="#09090B" stroke="#09090B"/>
</g>
</svg>
